<svg aria-hidden="true" style="width:0;height:0;position:absolute;overflow:hidden" xmlns="http://www.w3.org/2000/svg"><defs><symbol id="icon-Arrow" viewBox="0 0 82 32"><path d="M81.414 17.414a2 2 0 0 0 0-2.828L68.686 1.858a2 2 0 1 0-2.828 2.828L77.172 16 65.858 27.314a2 2 0 1 0 2.828 2.828l12.728-12.728zM0 18h80v-4H0v4z"/></symbol><symbol id="icon-bird-btn" viewBox="0 0 32 32"><path d="M10.586 3.272a2 2 0 0 0 0 2.828l9.9 9.9-9.9 9.9a1.998 1.998 0 0 0 .025 2.804 2.001 2.001 0 0 0 2.804.025l11.314-11.314a2 2 0 0 0 0-2.828L13.415 3.273a2 2 0 0 0-2.828 0z"/></symbol><symbol id="icon-card-_close20x20" viewBox="0 0 32 32"><path d="m17.253 15.751 7.369-7.317a.875.875 0 0 0-.047-1.198.893.893 0 0 0-1.206-.046L16 14.507 8.631 7.181a.896.896 0 0 0-1.262 0 .885.885 0 0 0 0 1.254l7.378 7.317-7.378 7.317a.873.873 0 0 0-.249.992.883.883 0 0 0 .503.5.896.896 0 0 0 1-.247l7.378-7.317 7.369 7.317a.894.894 0 0 0 1.206-.046.875.875 0 0 0 .047-1.198l-7.369-7.317z"/></symbol><symbol id="icon-cow-36x36" viewBox="0 0 32 32"><path d="M6.168.192c-.261.226-1.006 1.781-1.274 2.631-.319 1.052-.427 1.842-.384 2.931.058 1.556.449 2.736 1.31 3.969.224.323.405.601.405.624 0 .015-.138.03-.311.03-.746 0-2.143.248-3.214.571-1.701.511-2.7 1.406-2.7 2.405 0 .353.319.955.659 1.263.659.594 2.1 1.158 3.649 1.428.536.098 2.128.263 2.483.271.065 0 .087.346.087 1.481 0 .977.036 1.736.109 2.202.261 1.669 1.071 3.435 2.143 4.683l.369.428-.246.398c-.362.564-.499.992-.543 1.631-.109 1.533.847 2.894 2.693 3.849 3.518 1.826 8.985 1.112 11.033-1.443.999-1.248 1.115-2.676.326-3.969l-.246-.398.442-.534c.825-.992 1.361-1.984 1.767-3.24.34-1.067.471-2.097.471-3.728 0-.744.022-1.36.058-1.36.333-.008 1.933-.18 2.44-.271 1.557-.271 2.968-.827 3.649-1.428.34-.308.659-.909.659-1.263 0-1.112-1.129-2.014-3.229-2.556-.688-.18-1.984-.398-2.613-.436l-.297-.023.326-.451c.405-.549.912-1.616 1.108-2.315.55-2.022.21-4.375-.97-6.622-.492-.932-.833-1.15-1.231-.782-.152.143-.217.338-.362 1.045-.449 2.247-1.281 4.029-2.498 5.344l-.536.586H10.247l-.478-.519C8.582 5.316 7.72 3.467 7.271 1.212 7.126.505 7.061.31 6.909.167c-.239-.218-.471-.21-.738.023zm.927 4.458c.384.842.862 1.631 1.426 2.36l.449.579-.471.353A4.73 4.73 0 0 0 7.326 9.31l-.138.248-.348-.474c-1.187-1.639-1.484-3.646-.854-5.728.304-1.007.297-1 .572-.128.13.421.376 1.06.536 1.421zM25.94 3.064c.297.894.413 1.609.413 2.533 0 1.368-.362 2.526-1.122 3.563l-.34.466-.253-.428a4.516 4.516 0 0 0-1.267-1.391c-.195-.128-.347-.256-.347-.271 0-.023.137-.195.311-.383.804-.894 1.665-2.503 2.092-3.886.13-.428.261-.782.282-.782s.13.263.232.579zm-3.699 5.494c.804.338 1.571 1.308 1.694 2.127.065.451.217.737.413.782.087.015.688.068 1.332.113 2.288.15 4.09.639 4.858 1.308.355.316.319.579-.109.902-.854.646-2.7 1.135-4.583 1.218-1.245.053-1.506.09-1.672.263-.123.128-.138.263-.138 1.624 0 1.841-.094 2.901-.326 3.758-.326 1.165-.97 2.405-1.723 3.285l-.311.361-.644-.383a7.994 7.994 0 0 0-2.389-.97c-2.744-.654-5.777-.256-7.819 1.03l-.471.301-.297-.353c-.405-.474-1.043-1.488-1.296-2.06-.557-1.293-.724-2.345-.724-4.66 0-2.247.116-2.082-1.549-2.172-2.128-.113-3.75-.496-4.771-1.143-.753-.481-.63-.909.42-1.413 1.006-.489 2.389-.782 4.308-.902 1.491-.098 1.528-.12 1.665-.842.203-1.09 1.006-1.992 2.02-2.277.253-.075 1.672-.09 6.016-.083l5.683.015.413.173zm-4.069 15.559c1.774.436 3.099 1.248 3.671 2.255.137.233.195.474.224.842.029.459.007.571-.166.947-.804 1.706-3.757 2.834-6.762 2.578-3.613-.301-5.987-2.315-5.053-4.292.507-1.067 2.223-2.09 4.033-2.39.297-.045.594-.098.652-.113s.71-.015 1.448 0c1.006.023 1.491.068 1.955.173z"/><path d="M10.99 12.321c-.449.15-.753.346-1.158.751-.355.338-.384.736-.087.977.275.225.536.195.869-.098.42-.368.746-.518 1.151-.518.405-.008.717.135 1.151.518.333.293.594.323.869.098.145-.12.188-.218.188-.443 0-.233-.051-.338-.304-.594-.717-.721-1.781-.999-2.679-.691zM19.432 12.313c-.463.173-1.057.564-1.296.857-.232.286-.239.609 0 .849.239.256.529.24.876-.045.854-.706 1.491-.729 2.281-.075.203.173.434.308.507.308.355 0 .644-.316.644-.691 0-.24-.601-.797-1.144-1.06-.601-.293-1.318-.346-1.868-.143zM12.04 26.224c-.21.203-.282.496-.174.729.08.188.203.263.702.398.224.06.319.135.398.323.101.248.109.248.666.27l.557.023v-.21c-.007-.301-.174-.736-.391-1.037-.253-.346-.695-.571-1.195-.616-.34-.03-.427-.015-.565.12zM18.954 26.171c-.362.098-.883.586-1.028.969-.065.173-.13.481-.137.684-.015.323.015.398.188.556.427.376.992.083.992-.518 0-.293.217-.496.601-.571.405-.075.55-.241.557-.624 0-.503-.449-.699-1.173-.496z"/></symbol><symbol id="icon-cow-50x50" viewBox="0 0 32 32"><path fill="#f8d24e" style="fill:var(--color1,#f8d24e)" d="M16 0c8.837 0 16 7.163 16 16s-7.163 16-16 16S0 24.837 0 16 7.163 0 16 0z"/><path fill="#131313" style="fill:var(--color2,#131313)" d="M8.921 4.618c-.188.162-.725 1.283-.917 1.894-.229.758-.308 1.326-.276 2.111.042 1.12.323 1.97.944 2.857.162.233.292.433.292.449 0 .011-.099.022-.224.022-.537 0-1.543.179-2.314.411-1.225.368-1.944 1.012-1.944 1.732 0 .254.229.687.474.909.474.428 1.512.833 2.627 1.028.386.07 1.532.189 1.788.195.047 0 .063.249.063 1.066 0 .704.026 1.25.078 1.586.188 1.201.772 2.473 1.543 3.372l.266.308-.177.287c-.261.406-.36.714-.391 1.174-.078 1.104.61 2.084 1.939 2.771 2.533 1.315 6.469.801 7.944-1.039.719-.898.803-1.927.235-2.858l-.177-.287.318-.384a6.676 6.676 0 0 0 1.272-2.333c.245-.768.339-1.51.339-2.684 0-.536.016-.98.042-.98a22.66 22.66 0 0 0 1.757-.195c1.121-.195 2.137-.595 2.627-1.028.245-.222.474-.655.474-.909 0-.801-.813-1.45-2.325-1.84-.495-.13-1.428-.287-1.882-.314l-.214-.016.235-.325c.292-.395.657-1.164.798-1.667.396-1.456.151-3.15-.698-4.768-.355-.671-.599-.828-.886-.563-.11.103-.156.244-.261.752-.323 1.618-.923 2.901-1.798 3.848l-.386.422H11.86l-.344-.373c-.855-.942-1.475-2.273-1.798-3.897-.104-.509-.151-.649-.261-.752-.172-.157-.339-.152-.532.016zm.667 3.21a8.56 8.56 0 0 0 1.027 1.699l.323.417-.339.254a3.41 3.41 0 0 0-.844.985l-.099.179-.25-.341c-.855-1.18-1.069-2.625-.615-4.124.219-.725.214-.72.412-.092.094.303.271.763.386 1.023zm13.569-1.142c.214.644.297 1.158.297 1.824 0 .985-.261 1.818-.808 2.565l-.245.336-.182-.308a3.246 3.246 0 0 0-.912-1.001 1.26 1.26 0 0 1-.25-.195c0-.016.099-.141.224-.276.579-.644 1.199-1.802 1.506-2.798.094-.308.188-.563.203-.563s.094.189.167.417zm-2.664 3.956c.579.244 1.131.942 1.22 1.532.047.325.156.53.297.563.063.011.495.049.959.081 1.647.108 2.945.46 3.498.942.255.227.229.417-.078.649-.615.465-1.944.817-3.3.877-.897.038-1.084.065-1.204.189-.089.092-.099.189-.099 1.169 0 1.326-.068 2.089-.235 2.706-.235.839-.698 1.732-1.241 2.365l-.224.26-.464-.276a5.734 5.734 0 0 0-1.72-.698c-1.976-.471-4.16-.184-5.63.741l-.339.216-.214-.254a7.873 7.873 0 0 1-.933-1.483c-.401-.931-.521-1.689-.521-3.355 0-1.618.083-1.499-1.116-1.564-1.532-.081-2.7-.357-3.435-.823-.542-.346-.454-.655.302-1.017.725-.352 1.72-.563 3.102-.649 1.074-.07 1.1-.087 1.199-.606.146-.785.725-1.434 1.454-1.64.182-.054 1.204-.065 4.332-.06l4.092.011.297.124zm-2.929 11.203c1.277.314 2.231.898 2.643 1.624.099.168.141.341.162.606.021.33.005.411-.12.682-.579 1.229-2.705 2.04-4.869 1.856-2.601-.216-4.311-1.667-3.638-3.09.365-.768 1.6-1.505 2.903-1.721.214-.032.427-.07.469-.081s.511-.011 1.042 0c.725.016 1.074.049 1.407.124z"/><path fill="#131313" style="fill:var(--color2,#131313)" d="M12.393 13.351c-.323.108-.542.249-.834.541-.255.243-.276.53-.063.703.198.162.386.141.625-.07.302-.265.537-.373.829-.373.292-.005.516.097.829.373.24.211.427.233.626.07.104-.087.136-.157.136-.319 0-.168-.036-.243-.219-.427-.516-.519-1.282-.72-1.929-.498zM18.471 13.346c-.334.124-.761.406-.933.617-.167.206-.172.438 0 .611.172.184.381.173.631-.032.615-.509 1.074-.525 1.642-.054.146.124.313.222.365.222.255 0 .464-.227.464-.498 0-.173-.433-.573-.824-.763-.433-.211-.949-.249-1.345-.103zM13.149 23.361c-.151.146-.203.357-.125.525.057.135.146.189.506.287.162.043.229.097.287.233.073.179.078.179.48.195l.401.016v-.151c-.005-.216-.125-.53-.281-.747-.182-.249-.5-.411-.86-.444-.245-.022-.308-.011-.407.087zM18.127 23.323c-.261.07-.636.422-.74.698a1.852 1.852 0 0 0-.099.492c-.01.233.01.287.136.4.308.271.714.06.714-.373 0-.211.156-.357.433-.411.292-.054.396-.173.401-.449 0-.363-.323-.503-.844-.357z"/></symbol><symbol id="icon-Cursor-D-48x48" viewBox="0 0 32 32"><path stroke-width="1.333" d="m12.031 9.341 7.289 6.803c1.247 1.164.558 3.255-1.138 3.449l-2.745.314a3.331 3.331 0 0 0-1.851.834l-1.582 1.424c-1.287 1.158-3.338.245-3.338-1.487v-9.876c0-1.749 2.086-2.655 3.365-1.462z"/></symbol><symbol id="icon-ep_close-T-32x32" viewBox="0 0 32 32"><path fill="#fcfcfc" style="fill:var(--color3,#fcfcfc)" d="M23.884 6.706 16 14.59 8.116 6.706a.995.995 0 0 0-1.38.031 1 1 0 0 0-.031 1.38l7.88 7.884-7.882 7.882a1.002 1.002 0 0 0-.018 1.427.998.998 0 0 0 1.427-.015l7.886-7.882 7.884 7.884a1 1 0 0 0 1.38-.03 1 1 0 0 0 .03-1.38l-7.884-7.884 7.884-7.886a1.002 1.002 0 0 0 .018-1.427.998.998 0 0 0-1.427.015v.002z"/></symbol><symbol id="icon-eva_menu-fill-32x32" viewBox="0 0 32 32"><path fill="#fff" style="fill:var(--color4,#fff)" d="M26.733 14H5.266c-.7 0-1.267.425-1.267.95v.1c0 .525.567.95 1.267.95h21.467c.7 0 1.267-.425 1.267-.95v-.1c0-.525-.567-.95-1.267-.95zM26.733 20H5.266c-.7 0-1.267.425-1.267.95v.1c0 .525.567.95 1.267.95h21.467c.7 0 1.267-.425 1.267-.95v-.1c0-.525-.567-.95-1.267-.95zM26.733 8H5.266c-.7 0-1.267.425-1.267.95v.1c0 .525.567.95 1.267.95h21.467c.7 0 1.267-.425 1.267-.95v-.1c0-.525-.567-.95-1.267-.95z"/></symbol><symbol id="icon-eva_menu-fill-T-32x32" viewBox="0 0 32 32"><path fill="#fff" style="fill:var(--color4,#fff)" d="M26.733 14.667H5.266c-.7 0-1.267.567-1.267 1.267v.133c0 .7.567 1.267 1.267 1.267h21.467c.7 0 1.267-.567 1.267-1.267v-.133c0-.7-.567-1.267-1.267-1.267zM26.733 21.333H5.266c-.7 0-1.267.567-1.267 1.267v.133c0 .7.567 1.267 1.267 1.267h21.467c.7 0 1.267-.567 1.267-1.267V22.6c0-.7-.567-1.267-1.267-1.267zM26.733 8H5.266c-.7 0-1.267.567-1.267 1.267V9.4c0 .7.567 1.267 1.267 1.267h21.467c.7 0 1.267-.567 1.267-1.267v-.133C28 8.567 27.433 8 26.733 8z"/></symbol><symbol id="icon-facebook" viewBox="0 0 32 32"><path fill="#f8d24e" style="fill:var(--color1,#f8d24e)" d="M16 32c8.837 0 16-7.163 16-16S24.837 0 16 0 0 7.163 0 16s7.163 16 16 16z"/><path fill="#84a178" style="fill:var(--color5,#84a178)" d="M20.446 15.982h-2.61v9.619h-3.955v-9.619H12v-3.38h1.881v-2.187c0-1.564.739-4.014 3.99-4.014l2.929.012v3.281h-2.125c-.349 0-.839.175-.839.921v1.989h2.955l-.346 3.377z"/></symbol><symbol id="icon-github" viewBox="0 0 32 32"><path fill="#f8d24e" style="fill:var(--color1,#f8d24e)" d="M32 16c0 8.837-7.163 16-16 16S0 24.837 0 16 7.163 0 16 0s16 7.163 16 16z"/><path fill="#84a178" style="fill:var(--color5,#84a178)" d="M16 6.588c-5.169 0-9.412 4.242-9.412 9.412 0 4.411 3.095 8.419 7.206 9.412v-3.114a2.307 2.307 0 0 1-1.197-.03c-.556-.164-1.008-.535-1.344-1.1-.214-.361-.593-.752-.988-.723l-.097-1.099c.855-.073 1.595.521 2.034 1.259.195.328.419.52.708.605.278.082.578.043.926-.08.088-.698.407-.959.648-1.326v-.001c-2.451-.366-3.428-1.666-3.816-2.693-.514-1.363-.238-3.066.671-4.142.018-.021.05-.076.037-.114-.417-1.258.091-2.299.11-2.41.481.142.559-.143 2.089.786l.264.159c.111.066.076.028.186.02A8.031 8.031 0 0 1 16 11.131a8.016 8.016 0 0 1 2.002.285l.086.009c-.007-.001.023-.005.075-.036 1.911-1.157 1.842-.779 2.355-.946.019.111.519 1.169.107 2.411-.056.171 1.657 1.739.708 4.256-.388 1.027-1.365 2.328-3.816 2.693v.001c.314.479.692.734.69 1.722v3.887c4.111-.993 7.206-5 7.206-9.412 0-5.169-4.242-9.412-9.412-9.412z"/></symbol><symbol id="icon-ice-crema-36x36" viewBox="0 0 32 32"><path d="M16.108.107c.08.214.241 1.252.241 1.573 0 .797-.295 1.54-.837 2.122-.449.482-.897.75-1.975 1.185-1.198.489-1.694.783-2.256 1.339-.569.569-.904 1.192-1.024 1.921-.134.797 0 1.359.408 1.68l.208.161-.328.208c-.663.435-1.868 1.459-2.075 1.774-.402.603-.361 1.165.094 1.392l.214.107-.241.228c-.361.341-.435.576-.382 1.192.033.408.02.629-.074.964-.114.435-.114.442.033.75.147.301.562.683.937.843.181.08.187.107.228.723.02.355.053 1.486.08 2.517.02 1.031.067 1.975.107 2.089a.79.79 0 0 0 .274.361c.388.268.656.556.83.89.194.382.408 1.319 1.058 4.559l.455 2.276.281.268c.536.529 1.56.77 3.247.77 1.694 0 2.705-.234 3.24-.763l.288-.274.415-2.109c.917-4.613.997-4.867 1.714-5.436.221-.181.435-.402.475-.502.047-.114.094-.991.127-2.316.027-1.178.067-2.343.094-2.591l.04-.449.435-.328c.549-.422.763-.803.763-1.393-.007-.696-.462-1.459-1.292-2.142l-.395-.321.194-.274c.81-1.118.301-2.664-1.205-3.695l-.455-.315.167-.174c.743-.797.864-3.173.241-4.827-.375-.984-1.232-2.055-2.283-2.845C17.659.857 16.239 0 16.112 0c-.027 0-.027.047-.007.107zm1.928 2.336c.355.348.783.823.951 1.064.997 1.392 1.252 3.14.649 4.425-.241.522-.964 1.299-1.633 1.761-1.024.71-3.327 1.901-4.934 2.557-2.584 1.051-4.084 1.252-4.258.562-.067-.261.127-.469.951-1.018.743-.509 4.077-2.986 4.137-3.086.02-.027-.321.127-.75.341-1.453.736-2.142.596-2.109-.428.02-.743.556-1.587 1.299-2.069.187-.12.77-.388 1.305-.603 1.761-.71 2.296-1.071 2.892-1.962.355-.529.743-1.506.77-1.921.007-.147.034-.261.054-.261s.321.288.676.636zm1.828 7.606c.489.274.997.743 1.218 1.111.388.663.187 1.325-.649 2.169-.91.924-2.464 1.808-4.171 2.37-1.573.515-3.079.756-5.235.83l-1.339.047.87.053c1.125.074 3.3.007 4.144-.127 2.243-.355 4.151-1.064 5.516-2.042.308-.221.629-.402.716-.402.221 0 1.185.924 1.379 1.312.107.221.134.382.114.596-.1.89-1.185 1.366-3.802 1.68-3.2.382-7.384.007-9.172-.817-.844-.388-.984-.609-.77-1.198.067-.187.08-.408.054-.723-.033-.415-.027-.469.12-.623.335-.361.897-.569 2.959-1.091a28.11 28.11 0 0 0 2.176-.656c1.138-.415 3.274-1.493 4.264-2.156.93-.616 1.064-.643 1.607-.335zm-8.89 8.194c1.406.408 2.651.529 4.967.482 1.741-.034 2.812-.141 4.358-.415.315-.053.589-.1.623-.1.074 0 .053 2.571-.027 3.247-.087.716-.281 1.272-.489 1.406-.214.141-1.285.288-2.718.368-2.939.161-5.958 0-6.895-.375-.509-.207-.562-.475-.569-2.959 0-1.654.013-1.881.1-1.848.053.02.348.107.649.194zm1.586 5.69c.482.06 1.004.121 1.165.141l.288.034-.254.281c-.328.355-.83 1.064-1.011 1.426-.207.415-.274.442-.582.274l-.261-.147-.147-.91c-.08-.495-.167-.971-.187-1.051-.06-.174-.12-.174.991-.047zm7.137-.074c0 .013-.033.187-.067.382-.04.201-.208 1.292-.375 2.43-.341 2.377-.569 3.495-.777 3.869-.288.502-.977.797-2.095.89-.435.034-1.747-.053-1.821-.12-.053-.06 1.098-1.486 1.279-1.58.167-.094.214-.08.783.214.663.348.997.402.997.181s-.174-.435-.602-.73c-.395-.281-.536-.442-.536-.629 0-.053.194-.355.428-.669s.576-.817.75-1.118l.328-.542.301.04c.609.087.77.08.75-.053-.013-.067-.127-.261-.254-.422-.127-.167-.228-.335-.228-.368 0-.127.623-1.299.823-1.546.174-.214.315-.321.315-.228zm-4.184.536c.335.221 1.593 1.312 1.674 1.446.034.06-1.259 2.082-1.513 2.37-.027.034-.167-.033-.308-.141a22.133 22.133 0 0 0-1.165-.803l-.904-.596.542-.917c.964-1.613.944-1.587 1.151-1.587.107 0 .341.1.522.228zm2.537.241c-.234.288-.428.469-.509.469-.174 0-.455-.154-.93-.502l-.395-.288.79-.047c.428-.02.844-.047.917-.06.536-.087.536-.08.127.428zm-5.061 3.22c.616.241 1.66.81 1.962 1.064.214.174.214.187.127.402a6.675 6.675 0 0 1-.415.716c-.174.268-.375.602-.449.743-.214.415-.281.449-.723.328-.475-.141-.73-.382-.864-.817-.181-.609-.469-2.33-.435-2.598.013-.1.295-.04.797.161z"/></symbol><symbol id="icon-ice-crema-50x50" viewBox="0 0 31 32"><path fill="#f8d24e" style="fill:var(--color1,#f8d24e)" d="M15.686 0c8.663 0 15.686 7.023 15.686 15.686v.008c0 8.663-7.023 15.686-15.686 15.686S0 24.357 0 15.694v-.008C0 7.023 7.023 0 15.686 0z"/><path style="fill:var(--color6,#000)" d="M15.763 4.468c.057.151.17.884.17 1.111 0 .562-.208 1.087-.591 1.498-.317.34-.633.529-1.394.836-.846.345-1.196.553-1.592.945-.402.402-.638.841-.723 1.356-.095.562 0 .959.288 1.186l.146.113-.232.146c-.468.307-1.318 1.03-1.465 1.252-.284.425-.255.822.066.983l.151.076-.17.161c-.255.241-.307.406-.269.841.024.288.014.444-.052.68-.08.307-.08.312.024.529.104.213.397.482.662.595.128.057.132.076.161.51.014.25.038 1.049.057 1.777.014.728.047 1.394.076 1.474a.56.56 0 0 0 .194.255c.274.189.463.392.586.629.137.269.288.931.747 3.218l.321 1.607.199.189c.378.373 1.101.543 2.292.543 1.196 0 1.909-.165 2.287-.539l.203-.194.293-1.488c.647-3.256.704-3.436 1.21-3.837.156-.128.307-.284.335-.354.033-.08.066-.699.09-1.635a43.72 43.72 0 0 1 .066-1.829l.028-.317.307-.232c.387-.298.539-.567.539-.983-.005-.491-.326-1.03-.912-1.512l-.279-.227.137-.194c.572-.789.213-1.881-.851-2.608l-.321-.222.118-.123c.524-.562.61-2.24.17-3.407-.265-.695-.87-1.451-1.611-2.008-.364-.274-1.366-.879-1.456-.879-.019 0-.019.033-.005.076zm1.361 1.649c.25.246.553.581.671.751.704.983.884 2.216.458 3.124-.17.369-.68.917-1.153 1.243-.723.501-2.349 1.342-3.483 1.805-1.824.742-2.883.884-3.005.397-.047-.184.09-.331.671-.718.525-.359 2.878-2.108 2.92-2.178.014-.019-.227.09-.529.241-1.025.52-1.512.421-1.489-.302.014-.525.392-1.12.917-1.46.132-.085.543-.274.921-.425 1.243-.501 1.621-.756 2.041-1.385.25-.373.525-1.063.543-1.356.005-.104.024-.184.038-.184s.227.203.477.449zm1.29 5.368c.345.194.704.525.86.784.274.468.132.936-.458 1.531-.643.652-1.739 1.276-2.944 1.673-1.111.364-2.174.534-3.695.586l-.945.033.614.038c.794.052 2.33.005 2.925-.09 1.583-.25 2.93-.751 3.894-1.441.217-.156.444-.284.506-.284.156 0 .836.652.974.926a.706.706 0 0 1 .08.421c-.071.629-.836.964-2.684 1.186-2.259.269-5.212.005-6.474-.576-.595-.274-.695-.43-.543-.846.047-.132.057-.288.038-.51-.024-.293-.019-.331.085-.439.236-.255.633-.402 2.089-.77.51-.132 1.205-.34 1.536-.463.803-.293 2.311-1.054 3.01-1.522.657-.435.751-.454 1.134-.236zm-6.276 5.784c.992.288 1.871.373 3.506.34 1.229-.024 1.985-.099 3.076-.293.222-.038.416-.071.44-.071.052 0 .038 1.815-.019 2.292-.061.506-.198.898-.345.992-.151.099-.907.203-1.919.26-2.075.113-4.206 0-4.867-.265-.359-.146-.397-.335-.402-2.089 0-1.167.009-1.328.071-1.304.038.014.246.076.458.137zm1.12 4.017c.34.043.709.085.822.099l.203.024-.18.198c-.232.25-.586.751-.714 1.007-.146.293-.194.312-.411.194l-.184-.104-.104-.643a19.25 19.25 0 0 0-.132-.742c-.043-.123-.085-.123.699-.033zm5.038-.052c0 .009-.024.132-.047.269-.028.142-.146.912-.265 1.715-.241 1.678-.402 2.467-.548 2.731-.203.354-.69.562-1.479.628-.307.024-1.233-.038-1.285-.085-.038-.043.775-1.049.903-1.115.118-.066.151-.057.553.151.468.246.704.283.704.128s-.123-.307-.425-.515c-.279-.198-.378-.312-.378-.444 0-.038.137-.25.302-.473s.406-.576.529-.789l.232-.383.213.028c.43.061.543.057.529-.038a1.118 1.118 0 0 0-.18-.298c-.09-.118-.161-.236-.161-.26 0-.09.439-.917.581-1.092.123-.151.222-.227.222-.161zm-2.954.378c.236.156 1.125.926 1.181 1.021.024.043-.888 1.47-1.068 1.673-.019.024-.118-.024-.217-.099-.099-.08-.468-.335-.822-.567l-.638-.421.383-.647c.68-1.139.666-1.12.813-1.12.076 0 .241.071.369.161zm1.791.17c-.165.203-.302.331-.359.331-.123 0-.321-.109-.657-.354l-.279-.203.558-.033c.302-.014.595-.033.647-.043.378-.061.378-.057.09.302zm-3.572 2.273c.435.17 1.172.572 1.385.751.151.123.151.132.09.283a4.746 4.746 0 0 1-.293.506 8.326 8.326 0 0 0-.317.525c-.151.293-.198.317-.51.232-.335-.099-.515-.269-.61-.576-.128-.43-.331-1.645-.307-1.834.009-.071.208-.028.562.113z"/></symbol><symbol id="icon-Logo-D-60x65" viewBox="0 0 30 32"><path fill="#f8d24e" style="fill:var(--color1,#f8d24e)" d="M15.226 17.082c1.415-3.784-1.515-5.856-3.457-7.217-.371-.278-.743-.538-1.043-.776-.537-.447-.933-1.037-1.141-1.699s-.217-1.37-.029-2.037a.394.394 0 0 0-.308-.491.407.407 0 0 0-.216.016 6.565 6.565 0 0 0-1.801 1.058c-.518.393-.937.898-1.226 1.476s-.44 1.213-.441 1.858c-.366.285-.69.618-.962.992a3.6 3.6 0 0 0-.709 2.324c-.595.538-1.038 1.22-1.286 1.977s-.292 1.566-.129 2.345a1.232 1.232 0 0 0-.106 2.06c.221.164.49.251.767.25h.026v2.152c0 .218.088.428.245.582s.369.241.591.241h.65l1.058 9.04a.83.83 0 0 0 .828.732h4.404c.206 0 .404-.075.557-.21s.251-.321.275-.522l1.058-9.04h.65c.222 0 .434-.087.591-.241s.245-.364.245-.582v-2.152h.026c.336 0 .658-.131.895-.366a1.242 1.242 0 0 0 0-1.773l-.011.004zm-9.531-6.866c.535 1.98 2.599 2.76 4.482 3.455a.41.41 0 0 0 .492-.051.403.403 0 0 0 .074-.483.401.401 0 0 0-.279-.197c-2.027-.758-3.939-1.464-4.084-3.488-.034-.556.072-1.112.308-1.619s.596-.947 1.047-1.284c.282-.232.586-.437.906-.615a4.604 4.604 0 0 0 0 .761c.043.58.204 1.146.473 1.663s.641.976 1.094 1.349c.308.26.691.527 1.114.813.976.692 2.087 1.464 2.792 2.511a3.859 3.859 0 0 1 .404 3.715h-1.641c-3.383 0-7.27-.922-8.039-3.506-.152-.532-.151-1.095.004-1.626s.457-1.009.873-1.379l-.019-.018zM8.74 22.693l1.24 1.222-1.24 1.222-1.24-1.23 1.24-1.215zm2.844 3.21-1.025 1.01-1.24-1.222 1.24-1.219 1.077 1.058-.052.373zM8.74 28.706 7.5 27.484l1.24-1.222 1.24 1.222-1.24 1.222zm-.568-3.008-1.24 1.222L5.9 25.903l-.045-.366 1.077-1.058 1.24 1.219zM6.36 27.484l-.249.245-.063-.556.312.311zm-.13 1.251.702-.692 1.363 1.354a.845.845 0 0 0 .026.081H6.316l-.085-.743zm4.322-.691.702.692-.085.732H9.108l1.444-1.424zm.817-.315-.249-.245.316-.311-.067.556zm.371-3.199-.62-.622.787-.776-.167 1.398zm-1.192-1.178-1.177-1.157h2.354l-1.177 1.157zm-3.62 0-1.177-1.157h2.354l-1.177 1.157zm4.01 7.817h-4.4c-.007-.001-.013-.004-.018-.008s-.008-.011-.008-.017l-.104-.878h4.663l-.1.878c-.001.007-.004.014-.01.018s-.012.007-.02.007h-.004zm3.405-12.751h-1.292a.406.406 0 0 0-.444.397c0 .056.012.111.035.161s.056.096.098.134a.403.403 0 0 0 .311.102h.46v2.152c-.001.007-.004.014-.01.018s-.012.007-.02.007H3.987c-.007 0-.014-.003-.02-.007s-.009-.011-.01-.018v-2.152h7.355a.404.404 0 0 0 .366-.397.393.393 0 0 0-.105-.268.413.413 0 0 0-.261-.129H3.144a.46.46 0 0 1-.501-.452.446.446 0 0 1 .15-.335.454.454 0 0 1 .351-.117h.843a.404.404 0 0 0 .366-.397.393.393 0 0 0-.105-.268.413.413 0 0 0-.261-.129h-.743a3.873 3.873 0 0 1 .81-3.185c.26.798.928 1.889 2.599 2.756 1.571.809 3.65 1.222 6.178 1.222h1.485a.46.46 0 0 1 .501.452.446.446 0 0 1-.15.335.454.454 0 0 1-.351.117h.026z"/><path fill="#f8d24e" style="fill:var(--color1,#f8d24e)" d="m16.964 29.152-.292.449.006.004.287-.453zm3.149.151.535-.012-.014-.62-.611.104.09.528zm.037 1.648.136.518.409-.108-.009-.422-.535.012zm-4.133.079.12-.522-.003-.001-.117.523zm-2.04-.911.347-.408-.001-.001-.346.409zm-.737-1.673.536.003v-.003h-.536zm.256-1.172-.481-.236v.001l.481.236zm1.643-1.402.19.501.002-.001-.192-.5zm5.262-.136.534.042.035-.452-.44-.109-.129.52zm-.131 1.679-.1.526.587.111.046-.596-.534-.042zm-1.428-.687c-.804 0-1.48.086-1.973.303a1.616 1.616 0 0 0-.651.489 1.26 1.26 0 0 0-.255.774h1.071c0-.063.015-.098.038-.127a.554.554 0 0 1 .228-.155c.288-.126.784-.212 1.542-.212v-1.071zm-2.879 1.566c0 .551.247 1.006.709 1.307l.585-.897a.435.435 0 0 1-.222-.409h-1.071zm.715 1.31c.438.277 1.015.381 1.662.381v-1.071c-.559 0-.899-.095-1.089-.215l-.573.905zm1.662.382a11.1 11.1 0 0 0 1.863-.154l-.179-1.056c-.545.092-1.106.139-1.684.139v1.071zm1.238-.671.037 1.648 1.071-.024-.037-1.648-1.071.024zm.435 1.118a7.964 7.964 0 0 1-2.029.244v1.071c.821 0 1.589-.092 2.302-.279l-.273-1.036zm-2.029.244c-.757 0-1.369-.059-1.847-.169l-.24 1.044c.582.134 1.281.197 2.087.197v-1.071zm-1.85-.17c-.511-.114-.88-.236-1.127-.356l-.47.963c.354.173.814.316 1.363.439l.234-1.045zm-1.126-.356a3.258 3.258 0 0 1-.684-.44l-.693.817c.267.227.571.421.907.585l.47-.963zm-.685-.441c-.364-.308-.55-.709-.548-1.262l-1.071-.005c-.004.842.301 1.556.927 2.086l.691-.818zm-.547-1.264c0-.36.071-.669.202-.936l-.962-.471c-.211.43-.311.903-.311 1.407h1.071zm.201-.936c.244-.495.674-.88 1.352-1.137l-.38-1.002c-.884.336-1.549.885-1.933 1.666l.961.473zm1.354-1.138c.713-.274 1.508-.414 2.392-.414v-1.071c-.999 0-1.926.159-2.776.485l.384 1zm2.392-.414c.902 0 1.751.1 2.549.298l.258-1.04a11.605 11.605 0 0 0-2.807-.33v1.071zm2.144-.263-.131 1.679 1.068.083.131-1.679-1.068-.083zm.503 1.194a8.256 8.256 0 0 0-1.528-.161v1.071c.377 0 .818.046 1.328.142l.2-1.052zm5.226.856-.003.536.544.003-.006-.544-.536.006zm-.23-.696-.364.393.005.004.36-.397zm-1.334.052.371.386.004-.004-.375-.383zm-.324.633-.529-.087-.102.619.627.003.003-.536zm3.938 2.856.324.427.193-.146.018-.241-.534-.04zm-1.156.429-.115-.523-.003.001.118.522zm-4.017-.146-.183.504.004.002.178-.505zm-.915-.487-.332.42.003.003.003.003.326-.425zm-.612-.769-.48.237.001.002.479-.24zm.627-3.248.356.4-.356-.4zm4.896-.581.214-.491-.005-.002-.209.493zm1.23 1.13-.482.234.001.003.48-.237zm.209.937.534.039.001-.019v-.019h-.536zm-.063.863-.003.536.501.002.036-.499-.534-.039zm-4.242-.021.003-.536-.699-.003.178.676.518-.137zm.607.748-.264.466.002.001.261-.468zm3.253-.183v-.536h-.107l-.099.041.206.494zm.283 0 .534.04.043-.576h-.577v.536zm-1.615-1.523c-.004-.387-.093-.803-.406-1.087l-.72.794c-.006-.006.006.001.021.047a.87.87 0 0 1 .033.257l1.071-.011zm-.401-1.082c-.281-.261-.65-.347-1.013-.347v1.071c.209 0 .272.05.284.061l.729-.785zm-1.013-.348c-.399 0-.77.125-1.06.409l.75.765c.058-.057.144-.103.31-.103v-1.071zm-1.056.406a1.63 1.63 0 0 0-.482.932l1.057.174a.558.558 0 0 1 .167-.333l-.742-.773zm.044 1.555 1.888.011.006-1.071-1.888-.011-.006 1.071zm3.618 1.893c-.117.089-.404.213-.948.333l.23 1.046c.565-.124 1.049-.286 1.364-.525l-.647-.854zm-.951.334a6.805 6.805 0 0 1-1.498.175v1.071c.566 0 1.145-.068 1.735-.201l-.237-1.045zm-1.498.175c-.505 0-.92-.024-1.252-.068l-.143 1.062c.394.053.86.078 1.395.078v-1.071zm-1.252-.069a4.855 4.855 0 0 1-.971-.236l-.357 1.01c.389.137.784.233 1.184.287l.143-1.062zm-.966-.234a2.862 2.862 0 0 1-.772-.408l-.652.85c.305.234.66.421 1.059.565l.365-1.007zm-.766-.403a1.708 1.708 0 0 1-.465-.588l-.958.479c.189.377.44.697.759.949l.665-.84zm-.464-.586c-.113-.228-.18-.521-.18-.898h-1.071c0 .502.09.966.291 1.372l.96-.475zm-.18-.898c0-.377.068-.71.196-1.006l-.983-.427a3.57 3.57 0 0 0-.285 1.432h1.071zm.196-1.005c.135-.311.3-.541.487-.708l-.712-.8a3.056 3.056 0 0 0-.758 1.081l.983.427zm.488-.708c.576-.513 1.454-.811 2.719-.811v-1.071c-1.42 0-2.592.334-3.432 1.083l.713.8zm2.719-.811c.568 0 1.103.108 1.611.324l.418-.986a5.144 5.144 0 0 0-2.029-.409v1.071zm1.606.321c.474.207.78.5.962.873l.963-.468c-.307-.631-.82-1.091-1.497-1.387l-.428.982zm.963.876c.1.203.154.433.154.699h1.071c0-.417-.086-.811-.265-1.173l-.96.474zm.156.661-.063.863 1.068.078.063-.863-1.068-.078zm.474.366-4.242-.021-.005 1.071 4.242.021.005-1.071zm-4.763.651c.125.475.431.835.861 1.078l.527-.933c-.212-.12-.31-.258-.352-.418l-1.036.273zm.863 1.079c.434.243.978.34 1.585.34v-1.071c-.509 0-.848-.084-1.062-.204l-.523.935zm1.585.34c.651 0 1.367-.176 2.136-.496l-.412-.989c-.689.287-1.26.414-1.724.414v1.071zm1.93-.455h.282v-1.071h-.282v1.071zm-.251-.575-.099 1.329 1.068.08.099-1.329-1.068-.08z"/></symbol><symbol id="icon-Logo-M-40x37" viewBox="0 0 34 32"><path fill="#f8d24e" style="fill:var(--color1,#f8d24e)" d="M17.184 14.109c1.613-4.366-1.727-6.756-3.942-8.327-.423-.321-.847-.621-1.19-.895A4.161 4.161 0 0 1 10.718.576a.447.447 0 0 0-.132-.455.463.463 0 0 0-.466-.094 7.478 7.478 0 0 0-2.054 1.22 4.857 4.857 0 0 0-1.901 3.846 5.639 5.639 0 0 0-1.097 1.144 4.193 4.193 0 0 0-.809 2.681 5.3 5.3 0 0 0-1.613 4.987 1.433 1.433 0 0 0 .753 2.664h.03v2.483a.947.947 0 0 0 .953.95h.741l1.207 10.43a.952.952 0 0 0 .944.845h5.022a.96.96 0 0 0 .948-.844l1.207-10.43h.741a.947.947 0 0 0 .953-.95V16.57h.03a1.447 1.447 0 0 0 1.337-1.996 1.411 1.411 0 0 0-.316-.47l-.013.004zM6.315 6.188c.61 2.284 2.964 3.184 5.111 3.986a.463.463 0 0 0 .645-.617.467.467 0 0 0-.319-.227C9.44 8.456 7.26 7.641 7.095 5.306c-.039-.642.082-1.283.352-1.867s.68-1.093 1.194-1.481a6.874 6.874 0 0 1 1.033-.709 5.362 5.362 0 0 0 0 .878 4.994 4.994 0 0 0 1.786 3.476c.351.3.788.608 1.27.937 1.114.798 2.38 1.689 3.184 2.897a4.512 4.512 0 0 1 .462 4.285h-1.871c-3.857 0-8.29-1.064-9.167-4.045a3.414 3.414 0 0 1 .999-3.466l-.021-.021zm3.472 14.394 1.414 1.41-1.414 1.41-1.414-1.419 1.414-1.402zm3.243 3.704-1.169 1.165-1.414-1.41 1.414-1.406 1.228 1.22-.059.431zM9.787 27.52l-1.414-1.41 1.414-1.41 1.414 1.41-1.414 1.41zm-.648-3.471-1.414 1.41-1.177-1.174-.051-.422 1.228-1.22 1.414 1.406zM7.073 26.11l-.284.283-.072-.642.356.359zm-.148 1.444.8-.798 1.554 1.562a.72.72 0 0 0 .03.093H7.023l-.097-.857zm4.928-.798.8.798-.097.845h-2.35l1.647-1.643zm.932-.363-.284-.283.36-.359-.076.642zm.423-3.691-.707-.718.898-.895-.191 1.613zm-1.359-1.36-1.342-1.334h2.684l-1.342 1.334zm-4.128 0-1.342-1.334h2.684l-1.342 1.334zm4.572 9.02H7.276c-.008-.001-.015-.004-.02-.01s-.009-.012-.01-.02l-.119-1.013h5.318l-.114 1.013c-.001.008-.005.016-.011.021s-.014.008-.023.008h-.004zm3.883-14.711h-1.474a.47.47 0 0 0-.355.117.46.46 0 0 0 .355.797h.525v2.483c-.001.008-.005.016-.011.021s-.014.008-.023.008H4.366c-.008 0-.016-.003-.023-.008s-.01-.013-.011-.021v-2.483h8.388a.46.46 0 0 0 0-.916H3.405a.516.516 0 0 1-.527-.31.53.53 0 0 1 0-.422.533.533 0 0 1 .312-.285.506.506 0 0 1 .215-.025h.961a.46.46 0 0 0 0-.916h-.847a4.51 4.51 0 0 1 .923-3.674c.296.921 1.059 2.179 2.964 3.18 1.791.933 4.162 1.41 7.046 1.41h1.694a.516.516 0 0 1 .527.31.526.526 0 0 1 0 .422.533.533 0 0 1-.312.285.506.506 0 0 1-.215.025h.03zM19.859 28.392l-.342.525.007.004.335-.529zm3.682.177.626-.014-.016-.725-.715.121.105.617zm.043 1.926.159.606.478-.126-.011-.494-.626.014zm-4.832.092.141-.61-.004-.001-.137.611zm-2.385-1.064.405-.478-.001-.001-.404.478zm-.862-1.957.626.003v-.003h-.626zm.299-1.37-.562-.276v.001l.562.276zm1.921-1.639.222.586.002-.001-.224-.585zm6.152-.159.624.049.041-.529-.515-.128-.151.608zm-.153 1.963-.117.615.687.13.054-.697-.624-.049zm-1.67-.804c-.94 0-1.73.1-2.307.354-.296.13-.565.313-.761.571a1.474 1.474 0 0 0-.298.905h1.252c0-.073.018-.114.044-.149.032-.043.106-.111.267-.182.336-.148.916-.248 1.803-.248v-1.252zm-3.366 1.832c0 .644.289 1.176.829 1.528l.684-1.049a.508.508 0 0 1-.26-.478h-1.252zm.836 1.532c.512.324 1.186.446 1.944.446v-1.253c-.654 0-1.051-.111-1.273-.251l-.67 1.058zm1.943.445c.743 0 1.469-.06 2.178-.18l-.21-1.235c-.637.108-1.293.162-1.968.162v1.253zm1.448-.783.043 1.926 1.252-.028-.043-1.926-1.252.028zm.509 1.307a9.327 9.327 0 0 1-2.373.285v1.252c.96 0 1.858-.107 2.691-.326l-.319-1.211zm-2.372.285c-.885 0-1.601-.07-2.159-.198l-.281 1.221c.681.157 1.498.23 2.44.23v-1.252zm-2.163-.199c-.598-.134-1.029-.276-1.317-.416l-.55 1.125c.413.202.952.37 1.594.513l.273-1.222zm-1.318-.416a3.813 3.813 0 0 1-.799-.514l-.81.955c.313.265.667.493 1.06.685l.55-1.125zm-.8-.515c-.426-.36-.644-.83-.64-1.476l-1.252-.006c-.005.985.352 1.82 1.084 2.438l.809-.957zm-.64-1.479c0-.421.083-.782.236-1.094l-1.125-.551a3.701 3.701 0 0 0-.364 1.645h1.252zm.235-1.094c.285-.579.788-1.029 1.581-1.33l-.444-1.171c-1.034.392-1.811 1.035-2.26 1.948l1.124.553zm1.583-1.33c.833-.32 1.763-.484 2.797-.484v-1.253c-1.168 0-2.252.186-3.246.568l.449 1.169zm2.797-.485c1.054 0 2.047.117 2.981.348l.301-1.216a13.586 13.586 0 0 0-3.282-.385v1.253zm2.507-.308-.153 1.963 1.249.097.153-1.963-1.249-.097zm.588 1.397a9.646 9.646 0 0 0-1.786-.188v1.252c.441 0 .957.053 1.553.166l.233-1.231zm6.11 1-.003.626.636.004-.007-.636-.626.007zm-.269-.813-.426.459.005.005.421-.464zm-1.559.061.434.452.005-.004-.438-.447zm-.38.74-.618-.102-.119.724.733.004.003-.626zm4.606 3.339.378.499.225-.171.021-.282-.624-.047zm-1.352.502-.135-.612-.004.001.138.611zm-4.697-.171-.214.589.005.002.208-.59zm-1.07-.569-.389.491.008.006.381-.497zm-.716-.899-.561.278.001.003.56-.28zm.734-3.798.416.468-.417-.467zm5.725-.679.25-.574-.006-.003-.245.576zm1.437 1.321-.563.274.002.003.562-.277zm.244 1.095.625.045.002-.023v-.023h-.626zm-.073 1.009-.003.626.585.003.042-.584-.625-.045zm-4.96-.025.003-.626-.817-.004.208.79.606-.16zm.71.875-.308.545.003.001.306-.547zm3.803-.214v-.626h-.125l-.116.048.241.578zm.331 0 .624.047.05-.673h-.675v.626zm-1.888-1.78c-.005-.453-.109-.939-.475-1.271l-.841.928c-.007-.007.007.001.025.055.019.057.037.153.039.301l1.252-.013zm-.469-1.266c-.329-.305-.76-.406-1.184-.406v1.252c.244 0 .318.058.332.071l.852-.918zm-1.184-.406c-.466 0-.9.146-1.239.479l.877.895c.068-.067.169-.121.363-.121v-1.252zm-1.235.474a1.91 1.91 0 0 0-.563 1.09l1.236.203a.666.666 0 0 1 .195-.39l-.867-.904zm.051 1.818 2.208.012.007-1.253-2.208-.012-.007 1.253zm4.23 2.214c-.137.104-.472.249-1.108.389l.269 1.223c.661-.145 1.227-.335 1.595-.614l-.757-.998zm-1.111.39a7.946 7.946 0 0 1-1.752.205v1.252c.662 0 1.338-.079 2.028-.236l-.277-1.222zm-1.752.205c-.59 0-1.076-.028-1.464-.08l-.167 1.241c.461.062 1.006.091 1.631.091v-1.252zm-1.464-.08a5.672 5.672 0 0 1-1.135-.276l-.417 1.181c.455.161.917.273 1.385.336l.167-1.241zm-1.129-.274a3.363 3.363 0 0 1-.903-.477l-.762.994c.357.274.772.492 1.238.661l.427-1.177zm-.895-.471a1.987 1.987 0 0 1-.544-.688l-1.12.56c.221.441.515.815.887 1.11l.777-.982zm-.543-.686c-.132-.266-.21-.609-.21-1.05h-1.253c0 .587.105 1.129.34 1.605l1.123-.555zm-.211-1.049c0-.441.079-.83.23-1.176l-1.149-.499a4.163 4.163 0 0 0-.333 1.674h1.253zm.23-1.176c.158-.364.351-.633.57-.827l-.833-.935a3.56 3.56 0 0 0-.886 1.264l1.149.499zm.57-.828c.673-.6 1.7-.948 3.179-.948v-1.253c-1.66 0-3.031.39-4.013 1.266l.834.935zm3.179-.948c.664 0 1.29.126 1.884.378l.489-1.153a6.018 6.018 0 0 0-2.373-.478v1.253zm1.878.376c.554.242.912.585 1.124 1.021l1.126-.548c-.359-.738-.959-1.276-1.75-1.621l-.501 1.148zm1.126 1.024c.117.237.18.506.18.817h1.252c0-.487-.1-.948-.309-1.372l-1.123.555zm.182.772-.073 1.009 1.249.091.073-1.009-1.249-.091zm.554.429-4.96-.024-.006 1.252 4.96.024.006-1.252zm-5.569.761c.146.555.505.976 1.007 1.26l.616-1.09c-.248-.14-.363-.302-.412-.489l-1.211.319zm1.01 1.262c.508.284 1.143.398 1.853.398v-1.252c-.595 0-.991-.098-1.242-.238l-.611 1.093zm1.853.397c.762 0 1.598-.206 2.497-.58l-.481-1.156c-.805.335-1.473.484-2.016.484v1.252zm2.256-.532h.33v-1.252h-.33v1.252zm-.294-.673-.116 1.553 1.249.093.116-1.553-1.249-.093z"/></symbol><symbol id="icon-Logo-T-48x44" viewBox="0 0 34 32"><path fill="#f8d24e" style="fill:var(--color1,#f8d24e)" d="M17.413 14.169c1.635-4.384-1.751-6.784-3.995-8.362-.429-.322-.858-.623-1.206-.899-.621-.518-1.079-1.201-1.318-1.969s-.251-1.587-.033-2.361a.45.45 0 0 0-.133-.457.47.47 0 0 0-.472-.094 7.584 7.584 0 0 0-2.081 1.225c-.598.456-1.083 1.041-1.417 1.711s-.508 1.406-.51 2.152c-.423.33-.797.716-1.111 1.149a4.178 4.178 0 0 0-.819 2.693c-.687.624-1.199 1.413-1.486 2.291s-.338 1.814-.149 2.717c-.273.163-.485.411-.602.704s-.134.617-.047.921c.087.304.272.571.527.761s.567.291.886.289h.03v2.493c0 .253.102.496.283.675s.427.279.683.279h.751L6.417 30.56c.025.233.137.449.314.605s.406.243.643.243h5.089c.238-.001.467-.087.644-.244s.29-.372.317-.605l1.223-10.473h.751c.256 0 .502-.1.683-.279s.283-.422.283-.675v-2.493h.03c.388 0 .76-.152 1.035-.423s.428-.639.428-1.022a1.409 1.409 0 0 0-.429-1.03l-.013.004zM6.399 6.214c.618 2.294 3.003 3.197 5.179 4.003a.473.473 0 0 0 .568-.059.458.458 0 0 0-.051-.71.477.477 0 0 0-.187-.079c-2.343-.878-4.552-1.696-4.72-4.041-.039-.645.083-1.289.356-1.875s.689-1.097 1.21-1.487a6.97 6.97 0 0 1 1.047-.712 5.411 5.411 0 0 0 0 .882c.05.672.236 1.327.547 1.927s.741 1.131 1.264 1.563c.356.301.798.611 1.287.941 1.128.801 2.411 1.696 3.226 2.909a4.49 4.49 0 0 1 .467 4.304h-1.896c-3.909 0-8.401-1.069-9.289-4.062-.176-.616-.175-1.268.004-1.883s.528-1.169 1.008-1.598l-.021-.021zm3.518 14.455 1.433 1.416-1.433 1.416-1.433-1.425 1.433-1.408zm3.287 3.719-1.184 1.17-1.433-1.416 1.433-1.412 1.244 1.225-.06.433zm-3.287 3.248L8.484 26.22l1.433-1.416 1.433 1.416-1.433 1.416zm-.656-3.486-1.433 1.416-1.193-1.179-.051-.424 1.244-1.225 1.433 1.412zm-2.094 2.069-.287.284-.073-.644.36.36zm-.15 1.451.811-.801 1.575 1.569a.72.72 0 0 0 .03.093H7.116l-.099-.861zm4.994-.802.811.801-.099.848h-2.381l1.669-1.649zm.944-.364-.287-.284.365-.36-.077.644zm.429-3.706-.717-.721.91-.899-.193 1.62zm-1.377-1.366-1.36-1.34h2.72l-1.36 1.34zm-4.183 0-1.36-1.34h2.72l-1.36 1.34zm4.633 9.057H7.373c-.008-.001-.015-.004-.02-.01s-.009-.012-.01-.02l-.12-1.018h5.389l-.116 1.018c-.001.008-.005.016-.011.021s-.014.008-.023.008h-.004zm3.935-14.773h-1.493a.48.48 0 0 0-.359.118.456.456 0 0 0-.113.529.456.456 0 0 0 .28.251c.062.02.127.028.192.021h.532v2.493c-.001.008-.005.016-.011.021s-.014.008-.023.008H4.426c-.008 0-.017-.003-.023-.008s-.01-.013-.011-.021v-2.493h8.5a.468.468 0 0 0 .423-.46.456.456 0 0 0-.122-.311.47.47 0 0 0-.301-.149H3.453a.536.536 0 0 1-.535-.311.518.518 0 0 1 .128-.6.537.537 0 0 1 .407-.135h.974a.468.468 0 0 0 .423-.46c0-.115-.043-.226-.122-.311s-.186-.138-.301-.149h-.858c-.123-.645-.103-1.309.059-1.946s.461-1.232.877-1.743c.3.924 1.073 2.188 3.003 3.193 1.815.937 4.218 1.416 7.139 1.416h1.716a.536.536 0 0 1 .535.311.518.518 0 0 1-.128.6.537.537 0 0 1-.407.135h.03zM19.817 27.915l-.343.527.007.004.337-.531zm3.697.178.629-.014-.016-.728-.718.122.105.62zm.043 1.935.16.608.48-.126-.011-.496-.629.014zm-4.852.092.141-.613-.004-.001-.137.614zm-2.395-1.069.407-.48-.001-.001-.406.48zm-.866-1.965.629.003v-.003h-.629zm.301-1.376-.564-.278v.001l.565.277zm1.929-1.646.223.588.002-.001-.225-.587zm6.178-.159.627.049.041-.531-.517-.128-.151.61zm-.154 1.971-.117.618.69.131.055-.7-.627-.049zm-1.676-.807c-.944 0-1.737.101-2.317.356a1.896 1.896 0 0 0-.764.574c-.203.268-.3.58-.3.909h1.258c0-.074.018-.115.044-.149.033-.043.106-.111.268-.182.338-.148.92-.249 1.81-.249V25.07zm-3.38 1.839c0 .647.29 1.181.832 1.534l.687-1.054a.51.51 0 0 1-.261-.48h-1.258zm.839 1.538c.514.325 1.191.448 1.952.448v-1.258c-.656 0-1.056-.111-1.279-.253l-.673 1.063zm1.951.448c.746 0 1.476-.06 2.187-.181l-.21-1.24c-.639.108-1.298.163-1.977.163v1.258zm1.453-.787.043 1.934 1.257-.028-.043-1.934-1.257.028zm.512 1.313a9.355 9.355 0 0 1-2.383.286v1.258c.964 0 1.866-.108 2.703-.328l-.32-1.216zm-2.382.286c-.888 0-1.607-.07-2.168-.199l-.282 1.226c.684.157 1.504.231 2.45.231v-1.258zm-2.172-.2c-.6-.134-1.034-.277-1.323-.418l-.552 1.13c.415.203.956.371 1.6.515l.275-1.227zm-1.323-.418a3.836 3.836 0 0 1-.803-.516l-.814.959c.314.267.67.495 1.064.687l.552-1.13zm-.804-.517c-.427-.361-.646-.833-.643-1.482l-1.258-.006c-.005.989.353 1.827 1.089 2.449l.812-.961zm-.643-1.485c0-.423.083-.785.237-1.099l-1.129-.553a3.718 3.718 0 0 0-.365 1.652h1.258zm.237-1.098c.286-.582.791-1.033 1.587-1.336l-.446-1.176c-1.038.394-1.819 1.04-2.27 1.956l1.129.555zm1.589-1.336c.837-.321 1.77-.486 2.808-.486v-1.258c-1.173 0-2.262.187-3.259.57l.451 1.174zm2.809-.487c1.059 0 2.056.118 2.993.35l.303-1.221a13.646 13.646 0 0 0-3.296-.387v1.258zm2.517-.309-.154 1.971 1.254.098.154-1.971-1.254-.098zm.591 1.402a9.734 9.734 0 0 0-1.794-.189v1.258c.442 0 .961.054 1.56.167l.234-1.236zm6.136 1.005-.003.629.639.004-.007-.639-.629.007zm-.271-.817-.428.461.005.005.422-.466zm-1.566.062.436.454.005-.005-.44-.449zm-.38.743-.62-.102-.119.727.736.004.003-.629zm4.624 3.353.38.501.226-.171.021-.283-.627-.047zm-1.357.504-.135-.614-.004.001.139.613zm-4.717-.172-.214.591.005.002.209-.593zm-1.074-.571-.39.493.008.006.383-.499zm-.719-.903-.564.279.001.003.563-.281zm.737-3.814.418.47-.419-.469zm5.748-.682.252-.576-.006-.003-.246.579zm1.444 1.327-.566.275.002.004.564-.278zm.245 1.099.627.046.002-.023v-.023h-.629zm-.073 1.013-.003.629.588.003.043-.586-.627-.046zm-4.981-.024.003-.629-.82-.004.209.793.608-.16zm.712.878-.309.547.003.001.307-.549zm3.82-.215v-.629h-.126l-.116.048.242.581zm.332 0 .627.047.051-.676h-.678v.629zm-1.895-1.788c-.005-.455-.109-.943-.477-1.276l-.845.932c-.007-.007.007.001.025.056.019.058.037.154.039.302l1.258-.013zm-.472-1.271c-.33-.306-.763-.408-1.189-.408v1.258c.245 0 .32.059.334.071l.856-.922zm-1.189-.407c-.468 0-.904.147-1.245.481l.88.898c.069-.067.169-.121.364-.121v-1.258zm-1.24.476c-.31.297-.496.671-.566 1.095l1.241.204a.66.66 0 0 1 .196-.391l-.871-.907zm.051 1.826 2.217.012.007-1.258-2.217-.012-.007 1.258zm4.248 2.223c-.138.105-.474.25-1.113.391l.27 1.228c.664-.146 1.232-.336 1.602-.617l-.76-1.002zm-1.116.391a7.95 7.95 0 0 1-1.759.206v1.258c.665 0 1.344-.08 2.037-.237l-.278-1.227zm-1.759.206c-.593 0-1.081-.028-1.47-.08l-.168 1.247c.462.062 1.01.092 1.638.092v-1.258zm-1.47-.081a5.637 5.637 0 0 1-1.14-.277l-.419 1.186c.457.161.921.274 1.391.337l.168-1.247zm-1.134-.274a3.328 3.328 0 0 1-.906-.479l-.765.998c.358.275.775.494 1.243.663l.429-1.182zm-.899-.474a2.003 2.003 0 0 1-.546-.691l-1.125.563c.221.443.517.819.891 1.115l.781-.986zm-.545-.688c-.132-.268-.211-.612-.211-1.054h-1.258c0 .59.105 1.134.342 1.611l1.127-.558zm-.212-1.054c0-.442.08-.833.231-1.181l-1.154-.501a4.184 4.184 0 0 0-.334 1.681h1.258zm.231-1.181c.159-.365.353-.636.572-.831l-.836-.939a3.601 3.601 0 0 0-.89 1.269l1.154.501zm.572-.831c.676-.603 1.707-.952 3.193-.952v-1.258c-1.667 0-3.043.392-4.03 1.271l.837.939zm3.193-.952a4.79 4.79 0 0 1 1.892.38l.491-1.158a6.05 6.05 0 0 0-2.383-.48v1.258zm1.886.378c.556.243.916.587 1.129 1.025l1.131-.55c-.36-.741-.963-1.281-1.757-1.628l-.503 1.153zm1.131 1.028c.117.238.181.508.181.821h1.258c0-.489-.101-.952-.311-1.378l-1.128.557zm.182.775-.074 1.013 1.254.091.074-1.013-1.254-.091zm.557.431-4.981-.025-.006 1.258 4.981.025.006-1.258zm-5.592.764c.147.558.507.98 1.011 1.265l.619-1.095c-.249-.141-.364-.303-.414-.491l-1.216.321zm1.013 1.267c.51.285 1.148.399 1.861.399v-1.258c-.597 0-.995-.099-1.247-.239l-.614 1.098zm1.861.399c.765 0 1.605-.207 2.508-.583l-.483-1.161c-.809.337-1.479.486-2.024.486v1.258zm2.266-.534h.332v-1.258h-.332v1.258zm-.295-.676-.117 1.56 1.254.094.117-1.56-1.254-.094z"/></symbol><symbol id="icon-nav_close-32x32" viewBox="0 0 32 32"><path fill="#fcfcfc" style="fill:var(--color3,#fcfcfc)" d="M23.884 6.706 16 14.59 8.116 6.706a.995.995 0 0 0-1.38.031 1 1 0 0 0-.031 1.38l7.88 7.884-7.882 7.882a1.002 1.002 0 0 0-.018 1.427.998.998 0 0 0 1.427-.015l7.886-7.882 7.884 7.884a1 1 0 0 0 1.38-.03 1 1 0 0 0 .03-1.38l-7.884-7.884 7.884-7.886a1.002 1.002 0 0 0 .018-1.427.998.998 0 0 0-1.427.015v.002z"/></symbol><symbol id="icon-telegram" viewBox="0 0 32 32"><path fill="#f8d24e" style="fill:var(--color1,#f8d24e)" d="M32 16c0 8.837-7.163 16-16 16S0 24.837 0 16 7.163 0 16 0s16 7.163 16 16z"/><path fill="#84a178" style="fill:var(--color5,#84a178)" d="m12.868 18.375-.318 4.169c.454 0 .651-.182.887-.401l2.13-1.9 4.415 3.017c.81.421 1.38.199 1.599-.695l2.898-12.672.001-.001c.257-1.117-.433-1.554-1.222-1.28L6.226 14.698c-1.162.421-1.145 1.026-.198 1.3l4.355 1.264 10.115-5.907c.476-.294.909-.131.553.163l-8.182 6.857z"/></symbol><symbol id="icon-Vector-cursor-D-24x33" viewBox="0 0 25 32"><path stroke-width="2.667" d="m8.063 2.682 14.579 13.607c2.495 2.329 1.115 6.511-2.275 6.898l-5.49.627a6.668 6.668 0 0 0-3.703 1.668L8.01 28.33c-2.574 2.317-6.676.49-6.676-2.973V5.605c0-3.498 4.172-5.311 6.729-2.924z"/></symbol><symbol id="icon-weight-36x36" viewBox="0 0 32 32"><path d="M14.177.547c-3.974.589-7.247 2.796-8.451 5.685-.384.913-.488 1.473-.488 2.573.007.812.037 1.114.162 1.552.259.863.443 1.301.827 1.919l.355.575-.399.489c-3.154 3.924-3.502 9.444-.872 13.793.982 1.632 2.585 3.234 4.152 4.169l.465.273 12.743-.108.303-.165c1.056-.597 2.549-1.926 3.383-3.004a12.61 12.61 0 0 0 2.423-5.621c.118-.74.118-2.933-.007-3.63-.377-2.149-1.182-3.989-2.453-5.621-.244-.309-.436-.568-.436-.589 0-.014.133-.237.288-.489a7.762 7.762 0 0 0 .864-1.962c.199-.719.199-2.516 0-3.234-.709-2.552-2.837-4.679-5.843-5.851C20.351.97 18.91.618 17.98.503c-.864-.101-2.999-.079-3.804.043zm4.499 1.171c3.945.769 6.833 3.184 7.365 6.16.118.668.044 1.804-.155 2.437-.199.618-.569 1.344-1.005 1.962-.177.252-.325.539-.325.632s.155.338.377.582c1.847 2.048 2.822 4.614 2.822 7.389-.007 3.155-1.219 5.922-3.553 8.093-.399.374-.968.841-1.271 1.042l-.554.374-12.211.05-.473-.302c-1.714-1.114-3.258-2.954-4.115-4.909-1.079-2.473-1.189-5.34-.31-7.913.465-1.337 1.086-2.429 2.031-3.579.384-.46.561-.733.561-.863 0-.108-.192-.46-.443-.827-.886-1.287-1.248-2.717-1.034-4.068.222-1.366.842-2.487 1.987-3.601 1.492-1.445 3.575-2.401 6.02-2.76 1.012-.151 3.25-.093 4.285.101z"/><path d="M14.509 2.983c-3.029.496-5.4 2.178-6.176 4.384-.177.496-.207.69-.207 1.402s.03.906.207 1.402c.111.316.318.755.458.977.384.618.554.64 1.315.18A11.949 11.949 0 0 1 13.91 9.84c.916-.187 2.674-.259 3.671-.144 1.559.18 3.25.74 4.602 1.538.384.223.776.41.872.41.561 0 1.278-1.617 1.278-2.875 0-2.796-2.674-5.189-6.464-5.786-.805-.129-2.585-.129-3.361 0zm3.657 1.15c1.271.273 2.438.791 3.317 1.473 1.182.913 1.817 2.185 1.714 3.414-.037.489-.222 1.15-.332 1.222-.029.014-.443-.158-.916-.388a14.721 14.721 0 0 0-3.228-1.1c-.687-.144-.975-.165-2.512-.158-1.514 0-1.832.022-2.489.158a13.254 13.254 0 0 0-3.117 1.064c-1.101.525-1.042.532-1.241-.115-.258-.841-.096-1.955.406-2.796.266-.446.997-1.186 1.529-1.553 1.012-.697 1.899-1.013 3.804-1.358.391-.072 2.563.029 3.066.137zM16.962 13.405c-.207.259-.207.503.007.712.14.137.281.173.79.208.99.072 1.935.359 2.785.848.606.359 1.529 1.229 1.943 1.854.613.898 1.034 2.185 1.034 3.134 0 .331.029.431.185.575.236.237.547.237.776 0 .163-.165.17-.208.125-.913-.207-3.479-3.184-6.382-6.744-6.577l-.739-.043-.163.201z"/></symbol><symbol id="icon-weight-50x50" viewBox="0 0 32 32"><path fill="#f8d24e" style="fill:var(--color1,#f8d24e)" d="M16 0c8.837 0 16 7.163 16 16s-7.163 16-16 16S0 24.837 0 16 7.163 0 16 0z"/><path style="fill:var(--color6,#000)" d="M14.688 4.874c-2.861.424-5.218 2.013-6.085 4.093-.277.657-.351 1.061-.351 1.853.005.585.027.802.117 1.118.186.621.319.937.596 1.382l.255.414-.287.352c-2.271 2.826-2.521 6.8-.628 9.931.707 1.175 1.862 2.329 2.989 3.001l.335.197 9.175-.078.218-.119c.761-.43 1.835-1.387 2.436-2.163a9.082 9.082 0 0 0 1.745-4.047c.085-.533.085-2.111-.005-2.613-.271-1.547-.851-2.872-1.766-4.047a4.477 4.477 0 0 1-.314-.424c0-.01.096-.171.207-.352a5.56 5.56 0 0 0 .622-1.413c.144-.518.144-1.811 0-2.329-.511-1.837-2.042-3.369-4.207-4.212-.606-.238-1.644-.492-2.314-.574-.622-.072-2.159-.057-2.739.031zm3.239.843c2.84.554 4.92 2.293 5.303 4.435.085.481.032 1.299-.112 1.754-.144.445-.41.968-.723 1.413-.128.181-.234.388-.234.455s.112.243.271.419c1.33 1.475 2.032 3.322 2.032 5.32-.005 2.272-.878 4.264-2.558 5.827a8.892 8.892 0 0 1-.915.75l-.399.269-8.792.036-.34-.217c-1.234-.802-2.346-2.127-2.963-3.534a7.942 7.942 0 0 1-.223-5.698c.335-.963.782-1.749 1.463-2.577.277-.331.404-.528.404-.621 0-.078-.138-.331-.319-.595-.638-.926-.899-1.956-.745-2.929.16-.983.606-1.791 1.431-2.593 1.074-1.04 2.574-1.728 4.335-1.987.729-.109 2.34-.067 3.085.072z"/><path style="fill:var(--color6,#000)" d="M14.927 6.628c-2.181.357-3.888 1.568-4.446 3.157-.128.357-.149.497-.149 1.009s.021.652.149 1.009c.08.228.229.543.33.704.277.445.399.461.947.129a8.61 8.61 0 0 1 2.739-1.071c.66-.135 1.925-.186 2.643-.104a8.765 8.765 0 0 1 3.314 1.107c.277.16.558.295.628.295.404 0 .92-1.164.92-2.07 0-2.013-1.925-3.736-4.654-4.166-.58-.093-1.861-.093-2.42 0zm2.632.828c.915.197 1.755.569 2.388 1.061.851.657 1.308 1.573 1.234 2.458-.027.352-.16.828-.239.88-.021.01-.319-.114-.66-.279a10.537 10.537 0 0 0-2.324-.792c-.495-.104-.702-.119-1.808-.114-1.09 0-1.319.016-1.792.114a9.56 9.56 0 0 0-2.244.766c-.793.378-.75.383-.894-.083-.186-.605-.069-1.408.293-2.013.191-.321.718-.854 1.101-1.118.729-.502 1.367-.73 2.739-.978.282-.052 1.846.021 2.207.098zM16.693 14.132c-.149.186-.149.362.005.512.101.098.202.124.569.15a4.683 4.683 0 0 1 2.005.611c.436.259 1.101.885 1.399 1.335.441.647.745 1.573.745 2.256 0 .238.021.31.133.414.17.171.394.171.558 0 .117-.119.122-.15.09-.657-.149-2.505-2.292-4.595-4.856-4.735l-.532-.031-.117.145z"/></symbol></defs></svg>